<svg height="512" viewBox="0 0 60 60" width="512" xmlns="http://www.w3.org/2000/svg"><g id="031---Schedule-Donation-Appointment" fill="none"><g id="Layer_2" transform="translate(1 1)"><path id="Shape" d="m58 16v38c0 2.209139-1.790861 4-4 4h-50c-2.209139 0-4-1.790861-4-4v-38z" fill="#f5f5f5"/><path id="Shape" d="m55 16v38c0 2.209139-1.790861 4-4 4h3c2.209139 0 4-1.790861 4-4v-38z" fill="#cfd8dc"/><path id="Shape" d="m58 8v8h-58v-8c0-2.209139 1.790861-4 4-4h50c2.209139 0 4 1.790861 4 4z" fill="#f44335"/><path id="Shape" d="m54 4h-3c2.209139 0 4 1.790861 4 4v8h3v-8c0-2.209139-1.790861-4-4-4z" fill="#c81e1e"/><path id="Shape" d="m9 11c-1.1045695 0-2-.8954305-2-2v-7c0-1.1045695.8954305-2 2-2s2 .8954305 2 2v7c0 1.1045695-.8954305 2-2 2z" fill="#7f8e94"/><path id="Shape" d="m19 11c-1.1045695 0-2-.8954305-2-2v-7c0-1.1045695.8954305-2 2-2s2 .8954305 2 2v7c0 1.1045695-.8954305 2-2 2z" fill="#7f8e94"/><path id="Shape" d="m29 11c-1.1045695 0-2-.8954305-2-2v-7c0-1.1045695.8954305-2 2-2s2 .8954305 2 2v7c0 1.1045695-.8954305 2-2 2z" fill="#7f8e94"/><path id="Shape" d="m39 11c-1.1045695 0-2-.8954305-2-2v-7c0-1.1045695.8954305-2 2-2s2 .8954305 2 2v7c0 1.1045695-.8954305 2-2 2z" fill="#7f8e94"/><path id="Shape" d="m49 11c-1.1045695 0-2-.8954305-2-2v-7c0-1.1045695.8954305-2 2-2s2 .8954305 2 2v7c0 1.1045695-.8954305 2-2 2z" fill="#7f8e94"/><g fill="#60a917"><rect id="Rectangle-path" height="8" rx="1" width="8" x="5" y="20"/><path id="Shape" d="m26 21v6c0 .5522847-.4477153 1-1 1h-1.71c-.35-.35-.65-.64-.88-.84-.2329268-.2101852-.5870732-.2101852-.82 0-.23.2-.53.49-.88.84h-1.71c-.5522847 0-1-.4477153-1-1v-6c0-.5522847.4477153-1 1-1h6c.5522847 0 1 .4477153 1 1z"/><rect id="Rectangle-path" height="8" rx="1" width="8" x="32" y="20"/><rect id="Rectangle-path" height="8" rx="1" width="8" x="45" y="20"/><rect id="Rectangle-path" height="8" rx="1" width="8" x="5" y="32"/><rect id="Rectangle-path" height="8" rx="1" width="8" x="32" y="32"/><rect id="Rectangle-path" height="8" rx="1" width="8" x="45" y="32"/><rect id="Rectangle-path" height="8" rx="1" width="8" x="5" y="44"/><rect id="Rectangle-path" height="8" rx="1" width="8" x="18" y="44"/><rect id="Rectangle-path" height="8" rx="1" width="8" x="32" y="44"/><rect id="Rectangle-path" height="8" rx="1" width="8" x="45" y="44"/></g><path id="Shape" d="m27 34.92c0 2.7614237-2.2385763 5-5 5s-5-2.2385763-5-5c0-2.71 2.23-5.42 3.71-6.92.35-.35.65-.64.88-.84.2329268-.2101852.5870732-.2101852.82 0 .23.2.53.49.88.84 1.48 1.5 3.71 4.21 3.71 6.92z" fill="#f44335"/></g><g id="Layer_3" fill="#000"><path id="Shape" d="m55 4h-2v-1c-.0000001-1.6568542-1.3431458-2.99999987-3-2.99999987s-2.9999999 1.34314567-3 2.99999987v1h-4v-1c0-1.65685425-1.3431458-3-3-3s-3 1.34314575-3 3v1h-4v-1c0-1.65685425-1.3431458-3-3-3s-3 1.34314575-3 3v1h-4v-1c0-1.65685425-1.3431458-3-3-3s-3 1.34314575-3 3v1h-4v-1c0-1.65685425-1.3431458-3-3-3-1.65685425 0-3 1.34314575-3 3v1h-2c-2.76005315.00330612-4.99669388 2.23994685-5 5v46c.00330612 2.7600532 2.23994685 4.9966939 5 5h50c2.7600532-.0033061 4.9966939-2.2399468 5-5v-46c-.0033061-2.76005315-2.2399468-4.99669388-5-5zm-6-1c0-.55228475.4477153-1 1-1s1 .44771525 1 1v7c0 .5522847-.4477153 1-1 1s-1-.4477153-1-1zm-10 0c0-.55228475.4477153-1 1-1s1 .44771525 1 1v7c0 .5522847-.4477153 1-1 1s-1-.4477153-1-1zm-10 0c0-.55228475.4477153-1 1-1s1 .44771525 1 1v7c0 .5522847-.4477153 1-1 1s-1-.4477153-1-1zm-10 0c0-.55228475.4477153-1 1-1s1 .44771525 1 1v7c0 .5522847-.4477153 1-1 1s-1-.4477153-1-1zm-10 0c0-.55228475.44771525-1 1-1 .5522847 0 1 .44771525 1 1v7c0 .5522847-.4477153 1-1 1-.55228475 0-1-.4477153-1-1zm-4 3h2v4c0 1.6568542 1.34314575 3 3 3 1.6568542 0 3-1.3431458 3-3v-4h4v4c0 1.6568542 1.3431458 3 3 3s3-1.3431458 3-3v-4h4v4c0 1.6568542 1.3431458 3 3 3s3-1.3431458 3-3v-4h4v4c0 1.6568542 1.3431458 3 3 3s3-1.3431458 3-3v-4h4v4c.0000001 1.6568542 1.3431458 2.9999999 3 2.9999999s2.9999999-1.3431457 3-2.9999999v-4h2c1.6568542 0 3 1.34314575 3 3v7h-56v-7c0-1.65685425 1.34314575-3 3-3zm50 52h-50c-1.65685425 0-3-1.3431458-3-3v-37h56v37c0 1.6568542-1.3431458 3-3 3z"/><path id="Shape" d="m13 20h-6c-1.1045695 0-2 .8954305-2 2v6c0 1.1045695.8954305 2 2 2h6c1.1045695 0 2-.8954305 2-2v-6c0-1.1045695-.8954305-2-2-2zm-6 8v-6h6v6z"/><path id="Shape" d="m28 28v-6c0-1.1045695-.8954305-2-2-2h-6c-1.1045695 0-2 .8954305-2 2v6c.0022698.9247635.6382446 1.7273818 1.538 1.941-1.4772855 1.6628767-2.3687946 3.7641405-2.538 5.982 0 3.3137085 2.6862915 6 6 6s6-2.6862915 6-6c-.1692054-2.2178595-1.0607145-4.3191233-2.538-5.982.8997554-.2136182 1.5357302-1.0162365 1.538-1.941zm-8-6h6v6h-1.294c-.231-.225-.442-.422-.624-.585-.6153685-.5539382-1.5496315-.5539382-2.165 0-.181.163-.392.359-.623.584h-1.294zm3 18c-2.2293931-.0236325-4.0188746-1.8475615-4-4.077 0-2.437 2.222-5.123 4-6.786 1.779 1.665 4 4.35 4 6.786.0188746 2.2294385-1.7706069 4.0533675-4 4.077z"/><path id="Shape" d="m40 20h-6c-1.1045695 0-2 .8954305-2 2v6c0 1.1045695.8954305 2 2 2h6c1.1045695 0 2-.8954305 2-2v-6c0-1.1045695-.8954305-2-2-2zm-6 8v-6h6v6z"/><path id="Shape" d="m53 20h-6c-1.1045695 0-2 .8954305-2 2v6c0 1.1045695.8954305 2 2 2h6c1.1045695 0 2-.8954305 2-2v-6c0-1.1045695-.8954305-2-2-2zm-6 8v-6h6v6z"/><path id="Shape" d="m13 32h-6c-1.1045695 0-2 .8954305-2 2v6c0 1.1045695.8954305 2 2 2h6c1.1045695 0 2-.8954305 2-2v-6c0-1.1045695-.8954305-2-2-2zm-6 8v-6h6v6z"/><path id="Shape" d="m40 32h-6c-1.1045695 0-2 .8954305-2 2v6c0 1.1045695.8954305 2 2 2h6c1.1045695 0 2-.8954305 2-2v-6c0-1.1045695-.8954305-2-2-2zm-6 8v-6h6v6z"/><path id="Shape" d="m53 32h-6c-1.1045695 0-2 .8954305-2 2v6c0 1.1045695.8954305 2 2 2h6c1.1045695 0 2-.8954305 2-2v-6c0-1.1045695-.8954305-2-2-2zm-6 8v-6h6v6z"/><path id="Shape" d="m13 44h-6c-1.1045695 0-2 .8954305-2 2v6c0 1.1045695.8954305 2 2 2h6c1.1045695 0 2-.8954305 2-2v-6c0-1.1045695-.8954305-2-2-2zm-6 8v-6h6v6z"/><path id="Shape" d="m26 44h-6c-1.1045695 0-2 .8954305-2 2v6c0 1.1045695.8954305 2 2 2h6c1.1045695 0 2-.8954305 2-2v-6c0-1.1045695-.8954305-2-2-2zm-6 8v-6h6v6z"/><path id="Shape" d="m40 44h-6c-1.1045695 0-2 .8954305-2 2v6c0 1.1045695.8954305 2 2 2h6c1.1045695 0 2-.8954305 2-2v-6c0-1.1045695-.8954305-2-2-2zm-6 8v-6h6v6z"/><path id="Shape" d="m53 44h-6c-1.1045695 0-2 .8954305-2 2v6c0 1.1045695.8954305 2 2 2h6c1.1045695 0 2-.8954305 2-2v-6c0-1.1045695-.8954305-2-2-2zm-6 8v-6h6v6z"/><path id="Shape" d="m22.179 33.091c-.6594042.8096403-1.0690466 1.7936159-1.179 2.832 0 .5522847.4477153 1 1 1s1-.4477153 1-1c.1339047-.6211158.4155216-1.2008143.821-1.69.3153546-.4534258.2034257-1.0766454-.25-1.392-.4534258-.3153546-1.0766454-.2034258-1.392.25z"/></g></g></svg>