<?xml version="1.0" encoding="iso-8859-1"?>
<!-- Generator: Adobe Illustrator 19.0.0, SVG Export Plug-In . SVG Version: 6.00 Build 0)  -->
<svg version="1.1" id="Capa_1" xmlns="http://www.w3.org/2000/svg" xmlns:xlink="http://www.w3.org/1999/xlink" x="0px" y="0px"
	 viewBox="0 0 464 464" style="enable-background:new 0 0 464 464;" xml:space="preserve">
<polygon style="fill:#2E5166;" points="0,0 0,32 96,32 96,56 312,56 312,0 "/>
<rect y="32" style="fill:#FFBE00;" width="96" height="24"/>
<polygon style="fill:#F88756;" points="312,56 104,56 96,56 0,56 0,104 312,104 "/>
<rect y="104" style="fill:#E15D2D;" width="312" height="112"/>
<polygon style="fill:#3F708D;" points="464,88 312,88 312,216 80,216 80,312 464,312 "/>
<g>
	<rect x="80" y="312" style="fill:#E3DCD9;" width="384" height="64"/>
	<rect x="48" y="80" style="fill:#E3DCD9;" width="216" height="16"/>
	<rect x="72" y="112" style="fill:#E3DCD9;" width="192" height="16"/>
	<rect x="48" y="144" style="fill:#E3DCD9;" width="96" height="16"/>
	<rect x="160" y="144" style="fill:#E3DCD9;" width="104" height="16"/>
	<rect x="48" y="176" style="fill:#E3DCD9;" width="48" height="16"/>
	<rect x="112" y="176" style="fill:#E3DCD9;" width="152" height="16"/>
</g>
<polygon style="fill:#FFBE00;" points="336,248 336,328 360,304 392,336 424,304 392,272 416,248 "/>
<g>
	<rect x="144" y="240" style="fill:#E3DCD9;" width="16" height="48"/>
	<rect x="176" y="240" style="fill:#E3DCD9;" width="80" height="16"/>
	<rect x="272" y="240" style="fill:#E3DCD9;" width="40" height="16"/>
	<rect x="176" y="272" style="fill:#E3DCD9;" width="48" height="16"/>
	<rect x="240" y="272" style="fill:#E3DCD9;" width="72" height="16"/>
</g>
<rect x="264" y="336" style="fill:#FFBE00;" width="16" height="16"/>
<rect x="240" y="376" style="fill:#B9ACA9;" width="64" height="56"/>
<polygon style="fill:#E3DCD9;" points="240,432 176,432 176,464 368,464 368,432 304,432 "/>
<g>
</g>
<g>
</g>
<g>
</g>
<g>
</g>
<g>
</g>
<g>
</g>
<g>
</g>
<g>
</g>
<g>
</g>
<g>
</g>
<g>
</g>
<g>
</g>
<g>
</g>
<g>
</g>
<g>
</g>
</svg>
